<svg width="128" height="128" viewBox="0 0 128 128" fill="none" xmlns="http://www.w3.org/2000/svg">
<rect width="128" height="128" rx="20" fill="#6B30C7"/>
<path fill-rule="evenodd" clip-rule="evenodd" d="M84.5 61C95.8218 61 105 51.8218 105 40.5C105 29.1782 95.8218 20 84.5 20C73.1782 20 64 29.1782 64 40.5C64 46.1609 66.2945 51.2859 70.0043 54.9957L64 61H84V60.994C84.1662 60.998 84.3329 61 84.5 61Z" fill="url(#paint0_linear_4331_222077)"/>
<path d="M73.7837 107.309C73.6314 108.282 72.7929 109 71.8077 109H39.1923C38.2071 109 37.3686 108.282 37.2163 107.309L27.3612 44.3091C27.1715 43.096 28.1094 42 29.3372 42H81.6628C82.8906 42 83.8285 43.096 83.6388 44.3091L73.7837 107.309Z" fill="url(#paint1_linear_4331_222077)"/>
<rect x="42" y="61" width="17" height="6" rx="1" fill="white"/>
<rect x="42" y="74" width="27" height="6" rx="1" fill="white"/>
<rect x="42" y="87" width="27" height="6" rx="1" fill="white"/>
<mask id="mask0_4331_222077" style="mask-type:alpha" maskUnits="userSpaceOnUse" x="27" y="42" width="57" height="67">
<path d="M73.7837 107.309C73.6314 108.282 72.7929 109 71.8077 109H39.1923C38.2071 109 37.3686 108.282 37.2163 107.309L27.3612 44.3091C27.1715 43.096 28.1094 42 29.3372 42H81.6628C82.8906 42 83.8285 43.096 83.6388 44.3091L73.7837 107.309Z" fill="url(#paint2_linear_4331_222077)"/>
</mask>
<g mask="url(#mask0_4331_222077)">
<path fill-rule="evenodd" clip-rule="evenodd" d="M84.5 61C95.8218 61 105 51.8218 105 40.5C105 29.1782 95.8218 20 84.5 20C73.1782 20 64 29.1782 64 40.5C64 46.1609 66.2945 51.2859 70.0043 54.9957L64 61H84V60.994C84.1662 60.998 84.3329 61 84.5 61Z" fill="white"/>
</g>
<defs>
<linearGradient id="paint0_linear_4331_222077" x1="70.0039" y1="54.9926" x2="98.9961" y2="26.0039" gradientUnits="userSpaceOnUse">
<stop offset="0.03125" stop-color="#FF90EB"/>
<stop offset="0.96875" stop-color="#FFC7F5"/>
</linearGradient>
<linearGradient id="paint1_linear_4331_222077" x1="71.0227" y1="109" x2="57.6249" y2="54.8911" gradientUnits="userSpaceOnUse">
<stop stop-color="#A2EFD3"/>
<stop offset="1" stop-color="#45E0A8"/>
</linearGradient>
<linearGradient id="paint2_linear_4331_222077" x1="71.0227" y1="109" x2="57.6249" y2="54.8911" gradientUnits="userSpaceOnUse">
<stop stop-color="#A2EFD3"/>
<stop offset="1" stop-color="#45E0A8"/>
</linearGradient>
</defs>
</svg>
